<svg width="224" height="98" viewBox="0 0 224 98" fill="none" xmlns="http://www.w3.org/2000/svg">
<g clip-path="url(#clip0_185_493)">
<path d="M109.841 57.0837H83.9065L83.6315 49.1566C83.6196 48.813 83.6828 48.4709 83.8166 48.1538C83.9505 47.8368 84.1518 47.5523 84.4068 47.32C84.6619 47.0878 84.9645 46.9132 85.2939 46.8083C85.6232 46.7034 85.9716 46.6708 86.3149 46.7125L101.407 48.5497H101.409C103.646 48.5557 105.79 49.4432 107.371 51.0176C108.951 52.592 109.84 54.7251 109.841 56.9494V57.0837Z" fill="#2BE88B"/>
<path d="M98.2819 28.9649H80.1938C79.9533 28.9649 79.7151 29.0119 79.4928 29.1034C79.2705 29.1949 79.0686 29.329 78.8985 29.4981C78.7284 29.6672 78.5935 29.868 78.5014 30.0889C78.4094 30.3099 78.3621 30.5467 78.3621 30.7859V48.7678C78.3621 49.0069 78.4094 49.2438 78.5014 49.4647C78.5935 49.6857 78.7284 49.8864 78.8985 50.0555C79.0686 50.2246 79.2705 50.3588 79.4928 50.4503C79.7151 50.5417 79.9533 50.5888 80.1938 50.5887H98.2819C98.5225 50.5888 98.7607 50.5418 98.983 50.4503C99.2052 50.3588 99.4072 50.2246 99.5773 50.0555C99.7474 49.8864 99.8823 49.6857 99.9743 49.4647C100.066 49.2438 100.114 49.0069 100.114 48.7678V30.7859C100.114 30.5467 100.066 30.3099 99.9743 30.0889C99.8823 29.868 99.7474 29.6672 99.5773 29.4981C99.4072 29.329 99.2052 29.1949 98.983 29.1034C98.7607 29.0119 98.5225 28.9649 98.2819 28.9649Z" fill="#E6E6E6"/>
<path d="M94.2082 42.4111L85.668 44.0644C85.1615 44.1619 84.6367 44.0557 84.2088 43.769C83.7809 43.4823 83.4849 43.0386 83.3857 42.5352L82.7292 39.1838C82.6312 38.6802 82.7381 38.1585 83.0265 37.7332C83.3148 37.3078 83.7612 37.0135 84.2675 36.9149L92.8077 35.2616C93.3143 35.1641 93.8391 35.2704 94.267 35.5571C94.6948 35.8438 94.9908 36.2875 95.09 36.7909L95.7465 40.1422C95.8446 40.6458 95.7377 41.1675 95.4493 41.5929C95.1609 42.0182 94.7146 42.3125 94.2082 42.4111Z" fill="#3F3D56"/>
<path d="M92.4996 38.4518L85.9821 39.7136C85.8628 39.7367 85.7393 39.7117 85.6386 39.6442C85.5379 39.5768 85.4682 39.4723 85.445 39.3538C85.4218 39.2352 85.4469 39.1124 85.5148 39.0123C85.5827 38.9122 85.6878 38.843 85.807 38.8199L92.3245 37.5581C92.4437 37.5351 92.5673 37.56 92.668 37.6275C92.7687 37.695 92.8383 37.7995 92.8615 37.918C92.8847 38.0365 92.8596 38.1593 92.7918 38.2594C92.7239 38.3595 92.6188 38.4288 92.4996 38.4518Z" fill="white"/>
<path d="M91.2327 40.3204L87.8616 40.973C87.7424 40.9961 87.6189 40.9711 87.5181 40.9036C87.4174 40.8362 87.3478 40.7317 87.3246 40.6132C87.3014 40.4946 87.3265 40.3718 87.3944 40.2717C87.4622 40.1716 87.5674 40.1024 87.6866 40.0793L91.0577 39.4267C91.1167 39.4152 91.1774 39.4155 91.2364 39.4274C91.2953 39.4393 91.3513 39.4626 91.4012 39.496C91.451 39.5294 91.4938 39.5723 91.527 39.6221C91.5602 39.672 91.5832 39.7278 91.5947 39.7865C91.6062 39.8452 91.606 39.9055 91.594 39.9641C91.582 40.0227 91.5586 40.0784 91.5249 40.1279C91.4913 40.1775 91.4482 40.22 91.3981 40.253C91.348 40.2861 91.2918 40.3089 91.2327 40.3204Z" fill="white"/>
<path d="M100.114 30.7859V33.1759H78.3621V30.7859C78.3621 30.5467 78.4094 30.3099 78.5014 30.0889C78.5935 29.868 78.7284 29.6672 78.8985 29.4981C79.0686 29.329 79.2705 29.1949 79.4928 29.1034C79.7151 29.0119 79.9533 28.9649 80.1938 28.9649H98.2819C98.5225 28.9649 98.7607 29.0119 98.983 29.1034C99.2052 29.1949 99.4072 29.329 99.5773 29.4981C99.7474 29.6672 99.8823 29.868 99.9743 30.0889C100.066 30.3099 100.114 30.5467 100.114 30.7859Z" fill="#B3B3B3"/>
<path d="M143.549 33.9243C143.424 33.5213 143.211 33.1506 142.925 32.8383C142.64 32.526 142.29 32.2797 141.898 32.1167C141.507 31.9537 141.084 31.8779 140.66 31.8949C140.236 31.9118 139.821 32.0209 139.444 32.2146L114.559 23.3387L113.463 29.5189L138.269 36.3003C138.638 36.9083 139.219 37.3606 139.901 37.5714C140.583 37.7822 141.32 37.7368 141.971 37.444C142.621 37.1511 143.142 36.6311 143.433 35.9824C143.724 35.3337 143.765 34.6014 143.549 33.9243Z" fill="#FFB8B8"/>
<path opacity="0.2" d="M143.549 33.9243C143.424 33.5213 143.211 33.1506 142.925 32.8383C142.64 32.526 142.29 32.2797 141.898 32.1167C141.507 31.9537 141.084 31.8779 140.66 31.8949C140.236 31.9118 139.821 32.0209 139.444 32.2146L114.559 23.3387L113.463 29.5189L138.269 36.3003C138.638 36.9083 139.219 37.3606 139.901 37.5714C140.583 37.7822 141.32 37.7368 141.971 37.444C142.621 37.1511 143.142 36.6311 143.433 35.9824C143.724 35.3337 143.765 34.6014 143.549 33.9243Z" fill="black"/>
<path d="M118.976 24.4648L116.626 30.5679C116.559 30.7416 116.455 30.8989 116.322 31.0291C116.188 31.1593 116.028 31.2593 115.852 31.3225C115.676 31.3856 115.489 31.4102 115.302 31.3948C115.116 31.3794 114.935 31.3242 114.772 31.233L109.061 28.0374C108.169 27.6922 107.452 27.0097 107.066 26.1393C106.679 25.269 106.656 24.2819 107.001 23.3945C107.345 22.5071 108.03 21.7918 108.904 21.4054C109.779 21.0189 110.772 20.9929 111.665 21.3331L118.043 22.7392C118.225 22.7795 118.397 22.8585 118.546 22.9707C118.695 23.0829 118.818 23.2258 118.907 23.3896C118.995 23.5533 119.047 23.7342 119.059 23.9197C119.071 24.1053 119.043 24.2912 118.976 24.4648Z" fill="#2BE88B"/>
<path d="M145.508 39.5754L136.591 43.6047L137.762 47.9861C140.023 56.447 140.623 65.2616 139.529 73.9481L146.048 75.3017L151.453 61.6021L149.561 46.0222L145.508 39.5754Z" fill="#2BE88B"/>
<path d="M163.004 59.8561C157.145 59.8561 152.371 64.0901 152.139 69.3921H173.869C173.637 64.0901 168.862 59.8561 163.004 59.8561Z" fill="#3F3D56"/>
<path d="M158.443 60.7698C158.138 36.8363 144.427 39.0381 144.427 39.0381C144.427 39.0381 144.684 46.4878 144.807 46.7195C153.544 63.1535 139.124 82.42 120.77 78.8756C120.423 78.8088 120.091 78.741 119.772 78.6722C117.446 78.1895 115.393 76.8442 114.03 74.9099C112.666 72.9757 112.095 70.5977 112.432 68.2598C114.241 53.8254 105.248 54.0808 105.248 54.0808H92.0976L85.2686 47.9708C85.0276 47.7552 84.737 47.6015 84.4224 47.5232C84.1078 47.445 83.7787 47.4445 83.4639 47.5219C83.1491 47.5994 82.8582 47.7523 82.6165 47.9673C82.3749 48.1823 82.19 48.4529 82.0778 48.7554L81.1993 51.126C81.1993 51.126 68.2294 52.4691 69.3103 65.0942H73.3201C73.3104 65.4529 73.3248 65.8119 73.3633 66.1687L103.289 65.9268C105.043 65.9126 106.591 67.3257 106.599 69.0695C106.6 69.4941 106.516 69.9147 106.351 70.3061C106.185 70.6975 105.942 71.0517 105.635 71.3475C105.329 71.6433 104.966 71.8746 104.568 72.0277C104.169 72.1807 103.744 72.2523 103.317 72.2382L98.4924 72.0783C97.0063 78.6594 100.654 83.0917 104.673 85.8786C108.458 88.4645 112.948 89.8355 117.54 89.8071H130.647C147.67 89.8071 150.642 75.5703 150.642 75.5703C159.559 71.8096 158.443 60.7698 158.443 60.7698Z" fill="#3F3D56"/>
<path d="M162.193 97.5971C170.587 97.5971 177.392 90.8322 177.392 82.4872C177.392 74.1423 170.587 67.3774 162.193 67.3774C153.799 67.3774 146.994 74.1423 146.994 82.4872C146.994 90.8322 153.799 97.5971 162.193 97.5971Z" fill="#3F3D56"/>
<path d="M162.193 86.1906C164.251 86.1906 165.918 84.5326 165.918 82.4872C165.918 80.4419 164.251 78.7839 162.193 78.7839C160.136 78.7839 158.468 80.4419 158.468 82.4872C158.468 84.5326 160.136 86.1906 162.193 86.1906Z" fill="white"/>
<path d="M85.455 97.5971C95.1177 97.5971 102.951 89.8099 102.951 80.204C102.951 70.5981 95.1177 62.8109 85.455 62.8109C75.7924 62.8109 67.9592 70.5981 67.9592 80.204C67.9592 89.8099 75.7924 97.5971 85.455 97.5971Z" fill="#3F3D56"/>
<path d="M85.455 84.467C87.8233 84.467 89.7432 82.5584 89.7432 80.204C89.7432 77.8496 87.8233 75.941 85.455 75.941C83.0867 75.941 81.1668 77.8496 81.1668 80.204C81.1668 82.5584 83.0867 84.467 85.455 84.467Z" fill="white"/>
<path d="M136.617 44.7952L133.408 36.1324C133.241 35.6809 133.165 35.2011 133.184 34.7204C133.204 34.2396 133.318 33.7674 133.521 33.3306C133.724 32.8938 134.011 32.5011 134.367 32.1747C134.723 31.8484 135.139 31.5949 135.593 31.4287L144.791 28.0625C145.59 27.77 146.44 27.6368 147.29 27.6705C148.141 27.7043 148.977 27.9043 149.75 28.2592C150.523 28.6141 151.219 29.1168 151.796 29.7388C152.374 30.3608 152.823 31.0898 153.117 31.8842C153.382 32.5972 153.518 33.3515 153.517 34.1117C153.514 35.077 153.294 36.0294 152.874 36.8997C152.454 37.77 151.844 38.5363 151.088 39.1429C150.543 39.5781 149.929 39.9218 149.273 40.1607L136.617 44.7952Z" fill="#3F3D56"/>
<path d="M153.382 34.1116C153.381 35.0573 153.167 35.9907 152.756 36.8433C152.344 37.6959 151.746 38.4459 151.004 39.0381C149.866 38.7398 148.808 38.1987 147.901 37.4525C146.995 36.7063 146.264 35.7729 145.757 34.7171C145.25 33.6614 144.981 32.5086 144.968 31.339C144.955 30.1693 145.198 29.0109 145.681 27.9442C146.608 27.7438 147.568 27.7523 148.491 27.9691C149.414 28.1859 150.277 28.6055 151.015 29.197C151.754 29.7886 152.35 30.537 152.759 31.3875C153.169 32.2379 153.382 33.1688 153.382 34.1116Z" fill="#2BE88B"/>
<path d="M71.607 66.8402C73.6962 66.8402 75.3898 64.7957 75.3898 62.2737C75.3898 59.7516 73.6962 57.7071 71.607 57.7071C69.5177 57.7071 67.8241 59.7516 67.8241 62.2737C67.8241 64.7957 69.5177 66.8402 71.607 66.8402Z" fill="#2BE88B"/>
<path d="M121.611 78.4381H124.924L126.5 69.8968L121.611 69.8971L121.611 78.4381Z" fill="#FFB8B8"/>
<path d="M120.766 77.3629L127.29 77.3626H127.29C127.836 77.3626 128.377 77.4695 128.881 77.6772C129.386 77.8849 129.844 78.1894 130.23 78.5731C130.616 78.9569 130.923 79.4126 131.132 79.914C131.34 80.4155 131.448 80.9529 131.448 81.4957V81.63L120.767 81.6304L120.766 77.3629Z" fill="#2F2E41"/>
<path d="M125.457 74.9325C125.418 74.9325 125.379 74.9306 125.34 74.927L120.756 74.5951C120.57 74.578 120.392 74.5188 120.233 74.4221C120.074 74.3253 119.94 74.1936 119.84 74.0372C119.741 73.8807 119.679 73.7036 119.659 73.5195C119.639 73.3354 119.663 73.1493 119.727 72.9755L125.862 59.272C125.906 59.1499 125.924 59.02 125.915 58.8906C125.906 58.7612 125.87 58.6351 125.809 58.5202C125.749 58.404 125.664 58.3018 125.561 58.2203C125.458 58.1388 125.339 58.0799 125.212 58.0475C122.326 57.2978 114.924 55.3015 108.517 52.9658C105.771 51.965 104.042 50.5188 103.378 48.6674C102.501 46.2264 103.798 44.0004 103.853 43.907L103.897 43.8338L109.926 44.3786L116.463 44.9313L130.787 52.5676C131.988 53.2129 132.899 54.2839 133.341 55.5675C133.783 56.851 133.722 58.2528 133.17 59.4937L126.566 74.2161C126.471 74.4293 126.315 74.6104 126.118 74.7375C125.921 74.8647 125.691 74.9324 125.457 74.9325Z" fill="#2F2E41"/>
<path d="M110.975 17.2672C114.64 17.2672 117.611 14.3133 117.611 10.6696C117.611 7.02587 114.64 4.07204 110.975 4.07204C107.309 4.07204 104.338 7.02587 104.338 10.6696C104.338 14.3133 107.309 17.2672 110.975 17.2672Z" fill="#FFDCB8"/>
<path d="M119.72 79.2439H123.033L124.609 70.7027L119.719 70.7029L119.72 79.2439Z" fill="#FFB8B8"/>
<path d="M118.875 78.1688L125.399 78.1685H125.399C125.945 78.1685 126.486 78.2754 126.99 78.4831C127.494 78.6908 127.953 78.9952 128.339 79.379C128.725 79.7628 129.031 80.2184 129.24 80.7199C129.449 81.2213 129.557 81.7588 129.557 82.3015V82.4358L118.875 82.4362L118.875 78.1688Z" fill="#2F2E41"/>
<path d="M123.565 75.7383C123.527 75.7383 123.488 75.7365 123.449 75.7328L118.864 75.401C118.679 75.3839 118.5 75.3247 118.341 75.2279C118.183 75.1312 118.048 74.9995 117.949 74.843C117.849 74.6865 117.787 74.5094 117.768 74.3254C117.748 74.1413 117.771 73.9552 117.835 73.7814L123.971 60.0779C124.014 59.9557 124.032 59.8259 124.023 59.6965C124.014 59.5671 123.978 59.441 123.918 59.3261C123.857 59.2098 123.773 59.1076 123.67 59.0261C123.567 58.9447 123.448 58.8858 123.32 58.8534C120.435 58.1037 113.033 56.1074 106.625 53.7716C103.88 52.7709 102.151 51.3247 101.486 49.4732C100.61 47.0323 101.906 44.8062 101.962 44.7128L102.005 44.6396L108.035 45.1845L114.571 45.7372L128.896 53.3734C130.096 54.0187 131.008 55.0898 131.45 56.3733C131.891 57.6569 131.83 59.0587 131.279 60.2996L124.675 75.0219C124.579 75.2351 124.424 75.4163 124.227 75.5434C124.03 75.6705 123.8 75.7382 123.565 75.7383Z" fill="#2F2E41"/>
<path d="M113.021 21.0083L105.996 18.5907C105.996 18.5907 101.586 21.9592 103.704 30.3155C104.811 34.6277 104.488 39.1795 102.786 43.2952C102.581 43.8045 102.344 44.3007 102.078 44.781C102.078 44.781 109.914 54.1827 117.21 47.1986L114.372 33.6333C114.372 33.6333 118.831 24.6346 113.021 21.0083Z" fill="#2BE88B"/>
<path d="M111.799 17.4915C110.854 16.086 110.109 14.1371 111.149 12.7999C112.175 11.4798 114.2 11.6743 115.772 11.0902C117.962 10.2766 119.232 7.71921 118.836 5.42887C118.44 3.13854 116.59 1.23991 114.387 0.463061C112.184 -0.313793 109.699 -0.0611423 107.542 0.833453C104.886 1.93471 102.608 4.06502 101.652 6.76356C100.697 9.46209 101.208 12.7022 103.189 14.7764C105.314 17.0001 108.649 17.5927 111.734 17.5567" fill="#2F2E41"/>
<path d="M105.625 5.50238C104.435 6.46561 102.619 6.03778 101.342 5.19242C100.064 4.34707 99.0272 3.14333 97.6449 2.48054C95.2079 1.31206 92.2614 2.08883 89.8896 3.38312C87.5177 4.67742 85.4152 6.46552 82.9098 7.48122C80.4045 8.49691 77.2074 8.54711 75.3103 6.62926C74.8435 7.97392 74.8053 9.42903 75.2011 10.796C75.5968 12.1631 76.4071 13.3754 77.5216 14.2677C78.636 15.16 80.0002 15.6887 81.428 15.7817C82.8558 15.8748 84.2778 15.5276 85.4998 14.7876C88.2449 13.1253 89.7612 9.63988 92.8402 8.72238C94.544 8.21467 96.3735 8.62358 98.0954 9.06649C99.8174 9.50939 101.613 9.98797 103.351 9.61091C105.088 9.23386 106.714 7.68139 106.493 5.92687L105.625 5.50238Z" fill="#2F2E41"/>
<path d="M143.219 33.6556C143.044 33.2711 142.787 32.9293 142.465 32.6544C142.143 32.3795 141.765 32.178 141.356 32.0643C140.948 31.9505 140.519 31.9272 140.1 31.996C139.681 32.0648 139.283 32.2241 138.933 32.4625L113.137 26.7068L112.816 32.9742L138.274 36.6611C138.716 37.2192 139.348 37.5968 140.051 37.7223C140.755 37.8478 141.48 37.7125 142.089 37.342C142.699 36.9715 143.151 36.3917 143.359 35.7122C143.567 35.0328 143.517 34.301 143.219 33.6556Z" fill="#FFDCB8"/>
<path d="M117.659 27.2825L116.085 33.6272C116.04 33.8077 115.957 33.9765 115.84 34.1221C115.724 34.2677 115.578 34.3867 115.411 34.4709C115.244 34.5551 115.061 34.6026 114.874 34.6101C114.687 34.6177 114.501 34.5851 114.328 34.5146L108.264 32.0439C107.335 31.8113 106.538 31.2221 106.046 30.4056C105.554 29.5891 105.408 28.6119 105.64 27.6886C105.872 26.7653 106.463 25.9711 107.284 25.4805C108.104 24.9898 109.087 24.8427 110.016 25.0714L116.519 25.6845C116.705 25.7021 116.885 25.7594 117.047 25.8525C117.209 25.9456 117.349 26.0723 117.457 26.2239C117.566 26.3756 117.64 26.5486 117.675 26.7313C117.709 26.914 117.704 27.102 117.659 27.2825Z" fill="#2BE88B"/>
<path d="M140.239 38.6352C141.284 38.6352 142.13 37.7933 142.13 36.7549C142.13 35.7164 141.284 34.8745 140.239 34.8745C139.194 34.8745 138.348 35.7164 138.348 36.7549C138.348 37.7933 139.194 38.6352 140.239 38.6352Z" fill="#2BE88B"/>
</g>
<defs>
<clipPath id="clip0_185_493">
<rect width="224" height="98" fill="white"/>
</clipPath>
</defs>
</svg>
