<svg width="216" height="111" viewBox="0 0 216 111" fill="none" xmlns="http://www.w3.org/2000/svg">
<g clip-path="url(#clip0_183_383)">
<path d="M107.603 27.3933L107.598 27.4312L107.582 27.5405L105.994 38.9688L96.2673 42.5467L96.1148 42.4737L90.6693 39.8808L87.8535 29.049L87.6605 28.3054L87.7193 28.2828L99.766 23.7452L107.596 27.389L107.603 27.3933Z" fill="#2BE88B"/>
<path d="M96.1148 42.4737L90.6693 39.8808L87.6605 28.3054L87.7193 28.2828L95.5676 31.6025L96.1148 42.4737Z" fill="#2BE88B"/>
<path opacity="0.2" d="M96.2515 42.3416L92.1093 34.3832L92.6413 32.127L90.1358 29.1689L89.9224 29.3507L92.3363 32.2005L90.5331 39.8485L90.8057 39.9132L92.0109 34.8007L96.0032 42.4713L96.2515 42.3416Z" fill="#52697A"/>
<path d="M107.603 27.5335L107.582 27.5405L95.5676 31.7429L87.8535 29.049L87.6605 28.3054L87.7193 28.2828L99.766 23.7452L107.596 27.389L107.598 27.4312L107.603 27.5335Z" fill="#1A6850"/>
<path d="M95.7775 31.9533L93.3283 30.0592L93.8881 27.9546L100.886 25.4288L105.644 25.7095L107.533 27.3231L107.673 27.7439L95.7775 31.9533Z" fill="#2BE88B"/>
<path d="M87.8004 28.3054L93.3283 28.0948L96.323 27.0758L100.992 25.4288L101.865 24.1662L99.6864 23.7752L87.8004 28.3054Z" fill="#2BE88B"/>
<path d="M98.814 26.0475L95.9316 27.0616L96.0243 27.3263L98.9067 26.3122L98.814 26.0475Z" fill="#E6E6E6"/>
<path d="M60.8487 9.63858L59.4974 16.4121L65.8032 21.1538L68.7311 12.348L60.8487 9.63858Z" fill="#FFB8B8"/>
<path d="M65.9159 15.8478C69.2741 15.8478 71.9965 13.1184 71.9965 9.75144C71.9965 6.38453 69.2741 3.65511 65.9159 3.65511C62.5577 3.65511 59.8353 6.38453 59.8353 9.75144C59.8353 13.1184 62.5577 15.8478 65.9159 15.8478Z" fill="#FFB8B8"/>
<path d="M52.7412 55.9424C52.769 57.9092 61.3132 79.7992 60.1269 82.6495C58.2568 84.566 54.2344 94.7667 52.5158 97.4879C52.2907 97.4878 51.1647 100.875 51.1647 100.875C51.1647 100.875 53.8672 105.165 56.7949 103.358C60.4762 94.6776 69.6957 89.8361 69.8586 78.5222C70.3036 82.0962 71.6173 105.038 71.6173 105.038C71.6173 105.038 71.3653 105.145 77.0372 105.69C77.9178 92.3747 81.5164 69.722 73.4601 55.4906C70.9831 54.3619 52.7412 55.9424 52.7412 55.9424Z" fill="#3F3D56"/>
<path d="M71.6169 104.591C71.3536 105.099 69.4654 109.784 71.1837 110.254C73.1652 110.796 75.086 110.037 75.086 110.037C75.086 110.037 78.5548 111.124 80.6777 109.742C81.6685 108.749 81.4433 107.846 80.9704 107.191C80.7302 106.869 80.4226 106.603 80.0692 106.412C79.7157 106.221 79.325 106.109 78.9242 106.085C77.8469 106.008 77.5048 105.808 77.3814 105.313C77.2012 104.591 71.6169 104.591 71.6169 104.591Z" fill="#3F3D56"/>
<path d="M53.0864 100.499C53.0864 100.499 48.246 102.032 49.265 103.82C49.9268 104.928 50.8931 105.821 52.0483 106.393C52.0483 106.393 53.0578 110.565 55.8602 110.565C57.2613 110.565 57.739 109.767 57.8664 108.969C57.924 108.571 57.8941 108.164 57.7789 107.779C57.6637 107.393 57.4659 107.037 57.1994 106.736C56.4919 105.918 56.3912 105.534 56.653 105.097C57.0351 104.458 53.0864 100.499 53.0864 100.499Z" fill="#3F3D56"/>
<path d="M74.5874 56.6034C74.5874 56.6034 73.6855 58.4096 70.0823 57.7315C66.4791 57.0555 52.2918 57.7315 52.2918 57.7315C52.2918 57.7315 53.0787 41.5882 51.2771 31.8788C49.4755 22.1693 56.5692 16.6375 56.5692 16.6375L58.8218 14.3792C61.0743 14.1553 65.8309 21.163 65.8309 21.163C67.3962 21.426 68.8574 28.0967 70.104 34.4088C70.1777 34.7696 70.2471 35.1261 70.3165 35.4826C70.891 38.4256 71.691 41.7012 72.1701 44.6421C72.2048 44.8508 72.2373 45.0573 72.2677 45.2637C72.8372 49.0826 73.6116 52.868 74.5874 56.6034Z" fill="#E6E6E6"/>
<path d="M58.8023 5.95549C58.8023 5.95549 57.6655 3.44791 60.6213 2.30811C60.6213 2.30811 63.1224 -1.7952 68.1247 0.940343C68.1247 0.940343 71.5353 2.30811 71.5353 5.95549C71.5353 9.60287 72.6722 10.2867 72.6722 10.2867C72.6722 10.2867 70.9792 8.5454 70.5244 7.17764C70.0697 5.80988 66.5331 5.49957 65.1688 6.86734C63.8046 8.23511 60.394 8.00714 60.394 8.00714L60.6213 13.0223C60.6213 13.0223 59.4845 10.0588 59.0297 10.0588C58.575 10.0588 58.1202 5.95549 58.8023 5.95549Z" fill="#3F3D56"/>
<path opacity="0.2" d="M72.1701 44.6421C66.7978 41.7143 58.0955 35.2935 55.2879 31.8201C51.5872 27.2447 55.624 23.7669 55.624 23.7669C60.2006 20.8717 65.6726 30.805 65.6726 30.805L70.104 34.4088C70.1777 34.7697 70.2471 35.1261 70.3165 35.4826C70.891 38.4256 71.691 41.7012 72.1701 44.6421Z" fill="#52697A"/>
<path d="M88.2075 41.2681C88.2075 41.2681 96.1944 44.5188 97.509 40.8646C98.8235 37.2103 91.2032 37.273 91.2032 37.273L88.2116 37.698L88.2075 41.2681Z" fill="#FFB8B8"/>
<path d="M54.6002 22.2799C54.6002 22.2799 50.5654 25.7597 54.2635 30.3336C57.9616 34.9075 74.9572 44.6803 74.9572 44.6803L86.0278 41.6797L89.1607 42.2545L89.7514 36.3575L85.136 36.8092L73.4199 34.3081L65.9489 28.2305C65.9489 28.2305 59.1756 19.3863 54.6002 22.2799Z" fill="#E6E6E6"/>
<path opacity="0.2" d="M69.2991 64.1996L70.005 80.7365L68.2151 64.1996H69.2991Z" fill="#52697A"/>
<path d="M145.512 52.3701L139.104 53.8588C138.608 53.9739 138.087 53.8908 137.652 53.627C137.216 53.3631 136.9 52.9395 136.771 52.4459C136.697 52.1597 136.687 51.8603 136.744 51.57C136.802 51.2797 136.924 51.0062 137.101 50.7699C137.279 50.5336 137.507 50.3407 137.77 50.2056C138.032 50.0705 138.322 49.9968 138.617 49.9899L144.807 49.8456L145.512 52.3701Z" fill="#9F616A"/>
<path d="M144.832 53.3131L143.408 49.0324L151.941 46.1105L149.676 26.1166C153.753 26.8598 155.694 30.0742 155.512 34.2249L156.616 47.8682L144.832 53.3131Z" fill="#2BE88B"/>
<path d="M150.727 21.7085H164.666V14.7583C164.671 12.8813 163.938 11.078 162.625 9.73982C161.984 9.08056 161.217 8.55689 160.371 8.19977C159.524 7.84266 158.615 7.65934 157.696 7.66065C155.862 7.66404 154.103 8.39105 152.799 9.6845C151.495 10.9779 150.752 12.7339 150.729 14.5727C150.728 14.6363 150.727 14.6968 150.727 14.7583L150.727 21.7085Z" fill="#3F3D56"/>
<path d="M170.495 103.382L166.039 102.87L160.706 66.7635L149.676 103.016L144.855 103.163L150.333 58.5609L149.53 48.3808L166.039 48.3808C175.714 55.1522 172.665 74.7482 170.495 103.382Z" fill="#3F3D56"/>
<path d="M156.47 20.3308C159.374 20.3308 161.729 17.9699 161.729 15.0577C161.729 12.1454 159.374 9.78455 156.47 9.78455C153.565 9.78455 151.21 12.1454 151.21 15.0577C151.21 17.9699 153.565 20.3308 156.47 20.3308Z" fill="#9F616A"/>
<path d="M161.729 24.5786L152.817 26.9222C154.319 24.0272 154.799 21.3246 153.986 18.866L160.268 17.8407C159.864 20.1916 160.388 22.6079 161.729 24.5786Z" fill="#9F616A"/>
<path d="M164.724 46.0373C159.726 49.2244 153.903 52.8856 149.603 49.333L147.558 39.3726C145.932 37.9209 146.653 33.4413 148.85 27.0561C148.99 26.6508 149.22 26.2827 149.522 25.9797C149.825 25.6766 150.192 25.4466 150.597 25.3071L153.986 24.1392C155.488 25.4055 157.95 24.6502 160.853 22.9673L164.213 23.8462L165.674 34.8319C163.565 37.9998 163.933 42.2181 164.724 46.0373Z" fill="#2BE88B"/>
<path d="M160.56 50.3196L154.152 51.8083C153.656 51.9235 153.135 51.8403 152.7 51.5765C152.264 51.3127 151.948 50.889 151.819 50.3955C151.745 50.1093 151.735 49.8098 151.793 49.5195C151.85 49.2293 151.972 48.9557 152.149 48.7194C152.327 48.4831 152.555 48.2902 152.818 48.1551C153.08 48.02 153.37 47.9463 153.665 47.9394L159.855 47.7951L160.56 50.3196Z" fill="#9F616A"/>
<path d="M169.721 110.286C168.972 110.628 168.345 108.506 167.714 109.128C165.948 110.867 161.712 110.477 161.712 110.477C161.57 110.432 161.439 110.357 161.326 110.259C161.213 110.161 161.121 110.041 161.056 109.906C160.991 109.771 160.954 109.624 160.947 109.475C160.941 109.325 160.964 109.175 161.017 109.035C161.079 108.867 161.182 108.717 161.315 108.598C161.449 108.479 161.609 108.394 161.782 108.35L163.66 107.88L166.609 102.681L169.822 102.273L169.903 102.406C170.525 103.41 170.925 104.535 171.078 105.706C171.231 106.878 171.134 108.068 170.791 109.198C170.524 110.057 170.16 110.084 169.721 110.286Z" fill="#3F3D56"/>
<path d="M148.536 110.286C147.788 110.628 147.161 108.506 146.53 109.128C144.764 110.867 140.528 110.477 140.528 110.477C140.386 110.432 140.254 110.357 140.142 110.259C140.029 110.161 139.937 110.041 139.872 109.906C139.807 109.771 139.77 109.624 139.763 109.475C139.756 109.325 139.78 109.175 139.832 109.035C139.895 108.867 139.998 108.717 140.131 108.598C140.264 108.479 140.425 108.394 140.598 108.35L142.476 107.88L145.425 102.681L148.638 102.273L148.719 102.406C149.34 103.41 149.741 104.535 149.894 105.706C150.047 106.878 149.949 108.068 149.607 109.198C149.34 110.057 148.976 110.084 148.536 110.286Z" fill="#3F3D56"/>
<path d="M162.636 10.6594L161.311 14.8848L149.858 14.6807C149.897 13.2024 150.396 11.7732 151.285 10.5928C152.173 9.41249 153.408 8.5399 154.815 8.09697C156.222 7.65405 157.733 7.66291 159.135 8.12231C160.537 8.58172 161.761 9.46872 162.636 10.6594Z" fill="#3F3D56"/>
<path d="M159.88 51.2624L158.456 46.9817L166.989 44.0598L163.761 23.6326C165.733 23.992 167.508 25.0553 168.758 26.6256C170.008 28.196 170.648 30.1671 170.56 32.1742L171.664 45.8175L159.88 51.2624Z" fill="#2BE88B"/>
</g>
<defs>
<clipPath id="clip0_183_383">
<rect width="216" height="111" fill="white"/>
</clipPath>
</defs>
</svg>
